<svg xmlns="http://www.w3.org/2000/svg" viewBox="0 0 926.67 913.71"><defs><style>.cls-1{fill:#29201a;}.cls-2{fill:#fff;}</style></defs><g id="Fotos"><rect class="cls-1" width="926.67" height="913.71"/></g><g id="Texto"><path class="cls-2" d="M345.9,255.76c-72.46,72.49-72.46,190,0,262.45l13,12.93a41.56,41.56,0,0,0,58.78-58.78l-13.11-13.15A102.15,102.15,0,0,1,549,314.75L833.46,599.21C770.32,754.83,617.67,864.57,439.37,864.57c-234.85,0-425.2-190.35-425.2-425.2,0-13.89.68-27.64,2-41.17l252,252a186,186,0,0,0,263.05,0c72.78-72.78,72.78-190.77,0-263.59l-14.28-14.28a41.78,41.78,0,1,0-59.06,59.1l14,14A102.64,102.64,0,0,1,326.69,590.56L37.17,301C94.57,134.11,253,14.17,439.37,14.17c234.82,0,425.2,190.38,425.2,425.2a425.94,425.94,0,0,1-5.42,67.93L607.64,255.76a185,185,0,0,0-261.74,0Z" transform="translate(23.96 17.49)"/></g></svg>